<svg width="63" height="68" viewBox="0 0 63 68" fill="none" xmlns="http://www.w3.org/2000/svg">
<path d="M36.7508 13.1039H26.2492L31.495 24.3376L36.7508 13.1039ZM24.9402 14.0451L19.6844 25.2788H30.186L24.9402 14.0451ZM43.3156 25.2788L38.0598 14.0451L32.814 25.2788H43.3156ZM32.814 27.149L38.0598 38.3827L43.3156 27.149H32.814ZM19.6844 27.149L24.9402 38.3827L30.186 27.149H19.6844ZM13.1196 39.3117H23.6213L18.3754 28.0903L13.1196 39.3117ZM49.8704 39.3117L44.6246 28.0903L39.3787 39.3117H49.8704ZM31.495 0L26.2492 11.2337H36.7508L31.495 0ZM44.6246 52.4156L49.8704 41.1942H39.3787L44.6246 52.4156ZM18.3754 52.4156L23.6213 41.1942H13.1196L18.3754 52.4156ZM6.56479 53.3568H17.0565L11.8106 42.1232L6.56479 53.3568ZM56.4352 53.3568L51.1894 42.1232L45.9335 53.3568H56.4352ZM45.9335 55.2271L51.1894 66.4607L56.4352 55.2271H45.9335ZM32.814 55.2271L38.0598 66.4607L43.3156 55.2271H32.814ZM11.8106 66.4607L17.0565 55.2271H6.56479L11.8106 66.4607ZM0 67.402H10.5017L5.24584 56.1683L0 67.402ZM26.2492 67.402H36.7508L31.495 56.1683L26.2492 67.402ZM39.3787 67.402H49.8704L44.6246 56.1683L39.3787 67.402ZM57.7542 56.1683L52.4983 67.402H63L57.7542 56.1683Z" fill="white"/>
</svg>
